{"title":"White Palace (1990) Susan Sarandon (Dual ENG-FRA,MULTISUBS)","uid":4371577,"size":734654046,"categoryP":"video","categoryS":"movies","magnet":"?xt=urn:btih:2a46a0c98c577d16864d0ec53e1c0c9b0fd39ed8&amp;dn=White+Palace+%281990%29+Susan+Sarandon+%28Dual+ENG-FRA%2CMULTISUBS%29&amp;tr=udp%3A%2F%2Ftracker.openbittorrent.com%3A80&amp;tr=udp%3A%2F%2Fopen.demonii.com%3A1337&amp;tr=udp%3A%2F%2Ftracker.coppersurfer.tk%3A6969&amp;tr=udp%3A%2F%2Fexodus.desync.com%3A6969","seeders":8,"leechers":0,"uploader":"Kuthumi","files":-1,"time":1220195289,"description":" &lt;a href=&quot;http://www.imdb.com/title/tt0103251/&quot; rel=&quot;nofollow&quot; target=&quot;_NEW&quot;&gt;http://www.imdb.com/title/tt0103251/&lt;/a&gt;\n\nOptional Swedish subtitles in separate idx/sub files included in this torrent.\n\nAdditional Danish, Dutch, English, Finnish and German subs uploaded in new torrent:\nhttp://thepiratebay.se/torrent/4397331\n\nWith James Spader (then 30, from Stargate 1994) \nand Jason Alexander (then 31, from Seinfeld).\n\nGood story about a young, rich man who falls in love with a mature working woman. A full DVD has survived here at PirateBay since June, 2005, so I made this rip for those of you who cannot handle such downloads. I would have thought this film too special for you guys here, but perhaps it's the hot sex with an experienced woman that keeps up the interest.\n\nThanks to user 'abraksta' for uploading the DVD, which contains several audio tracks in stereo and lots of subtitles. It still has seeders at http://thepiratebay.se/torrent/3349403/White_Palace\nI kept the French soundtrack.\n\nXviD 2-pass Widescreen 704x384, good stereo AC3 on both soundtracks: Original English (track 1) and French (track 2). Or download the better VLC player for free (plays almost anything, including iso) from http://www.videolan.org/vlc/\n\nEnglish track plays normal in WMP. To hear French, open in DivX Player or some other, right-click and choose track 2.\n\nBurn tested, runs well in both my DivX players. Choose audio track with remote as for DVD.\n\nFormat/Info                      : Audio Video Interleave\nFile size                        : 700 MiB\nDuration                         : 1h 38mn\nOveral bit rate                  : 992 Kbps\n\nVideo\nFormat                           : MPEG-4 Visual\nFormat profile                   : Streaming Video@L1\nFormat settings, BVOP            : Yes\nFormat settings, QPel            : No\nFormat settings, GMC             : No warppoints\nFormat settings, Matrix          : Default\nMuxing mode                      : Packet Bitstream\nCodec ID                         : XVID\nCodec ID/Hint                    : XviD\nDuration                         : 1h 38mn\nBit rate                         : 722 Kbps\nWidth                            : 704 pixels\nHeight                           : 384 pixels\nDisplay aspect ratio             : 16/9\nFrame rate                       : 25.000 fps\nResolution                       : 8 bits\nColorimetry                      : 4:2:0\nScan type                        : Progressive\nBits/(Pixel*Frame)               : 0.107\nStream size                      : 509 MiB\nWriting library                  : XviD 1.2.0.dev47 (UTC 2006-11-01)\n\nAudio #1 (English)\nFormat                           : MPEG Audio\nFormat version                   : Version 1\nFormat profile                   : Layer 3\nCodec ID                         : 55\nCodec ID/Hint                    : MP3\nDuration                         : 1h 38mn\nBit rate mode                    : Constant\nBit rate                         : 128 Kbps\nMinimum bit rate                 : 128 Kbps\nChannel(s)                       : 2 channels\nSampling rate                    : 48.0 KHz\nResolution                       : 16 bits\nStream size                      : 90.3 MiB\nWriting library                  : LAME3.97 \nEncoding settings                : CBR\n\nAudio #2 (French)\nFormat                           : MPEG Audio\nFormat version                   : Version 1\nFormat profile                   : Layer 3\nCodec ID                         : 55\nCodec ID/Hint                    : MP3\nDuration                         : 1h 38mn\nBit rate mode                    : Constant\nBit rate                         : 128 Kbps\nMinimum bit rate                 : 128 Kbps\nChannel(s)                       : 2 channels\nSampling rate                    : 48.0 KHz\nResolution                       : 16 bits\nStream size                      : 90.3 MiB\nWriting library                  : LAME3.97 \nEncoding settings                : CBR\n\nSource: PAL (note that PAL/NTSC will give no problems for avi files)","torrent":{"xt":"urn:btih:2a46a0c98c577d16864d0ec53e1c0c9b0fd39ed8","amp;dn":"White+Palace+%281990%29+Susan+Sarandon+%28Dual+ENG-FRA%2CMULTISUBS%29","amp;tr":["udp%3A%2F%2Ftracker.openbittorrent.com%3A80","udp%3A%2F%2Fopen.demonii.com%3A1337","udp%3A%2F%2Ftracker.coppersurfer.tk%3A6969","udp%3A%2F%2Fexodus.desync.com%3A6969"],"infoHash":"2a46a0c98c577d16864d0ec53e1c0c9b0fd39ed8","infoHashBuffer":{"type":"Buffer","data":[42,70,160,201,140,87,125,22,134,77,14,197,62,28,12,155,15,211,158,216]},"announce":[],"urlList":[]}}